<svg xmlns="http://www.w3.org/2000/svg" width="28.251" height="28.244" viewBox="0 0 28.251 28.244"><defs><style>.a{fill:#fff;}</style></defs><path class="a" d="M14.123,9.118a7.241,7.241,0,1,0,7.241,7.241A7.23,7.23,0,0,0,14.123,9.118Zm0,11.949a4.708,4.708,0,1,1,4.708-4.708,4.716,4.716,0,0,1-4.708,4.708ZM23.35,8.822a1.689,1.689,0,1,1-1.689-1.689A1.685,1.685,0,0,1,23.35,8.822Zm4.8,1.714a8.359,8.359,0,0,0-2.281-5.918,8.414,8.414,0,0,0-5.918-2.281c-2.332-.132-9.321-.132-11.653,0A8.4,8.4,0,0,0,2.375,4.612,8.386,8.386,0,0,0,.094,10.53c-.132,2.332-.132,9.321,0,11.653A8.359,8.359,0,0,0,2.375,28.1a8.424,8.424,0,0,0,5.918,2.281c2.332.132,9.321.132,11.653,0A8.359,8.359,0,0,0,25.865,28.1a8.414,8.414,0,0,0,2.281-5.918c.132-2.332.132-9.315,0-11.647ZM25.134,24.685a4.766,4.766,0,0,1-2.685,2.685c-1.859.737-6.271.567-8.326.567S7.651,28.1,5.8,27.37a4.766,4.766,0,0,1-2.685-2.685c-.737-1.859-.567-6.271-.567-8.326s-.164-6.473.567-8.326A4.766,4.766,0,0,1,5.8,5.35c1.859-.737,6.271-.567,8.326-.567s6.473-.164,8.326.567a4.766,4.766,0,0,1,2.685,2.685c.737,1.859.567,6.271.567,8.326S25.871,22.832,25.134,24.685Z" transform="translate(0.005 -2.238)"/></svg>