<svg xmlns="http://www.w3.org/2000/svg" width="18.425" height="18.421" viewBox="0 0 18.425 18.421"><defs><style>.a{fill:#505153;}</style></defs><path class="a" d="M9.209,6.725a4.723,4.723,0,1,0,4.723,4.723A4.715,4.715,0,0,0,9.209,6.725Zm0,7.793a3.07,3.07,0,1,1,3.07-3.07A3.076,3.076,0,0,1,9.209,14.519Zm6.018-7.987a1.1,1.1,0,1,1-1.1-1.1A1.1,1.1,0,0,1,15.227,6.532ZM18.355,7.65a5.451,5.451,0,0,0-1.488-3.86A5.487,5.487,0,0,0,13.007,2.3c-1.521-.086-6.079-.086-7.6,0a5.479,5.479,0,0,0-3.86,1.484A5.469,5.469,0,0,0,.059,7.646c-.086,1.521-.086,6.079,0,7.6a5.451,5.451,0,0,0,1.488,3.86,5.494,5.494,0,0,0,3.86,1.488c1.521.086,6.079.086,7.6,0a5.451,5.451,0,0,0,3.86-1.488,5.487,5.487,0,0,0,1.488-3.86c.086-1.521.086-6.075,0-7.6ZM16.39,16.878a3.109,3.109,0,0,1-1.751,1.751c-1.213.481-4.09.37-5.43.37s-4.221.107-5.43-.37a3.109,3.109,0,0,1-1.751-1.751c-.481-1.213-.37-4.09-.37-5.43s-.107-4.221.37-5.43A3.109,3.109,0,0,1,3.779,4.267c1.213-.481,4.09-.37,5.43-.37s4.221-.107,5.43.37A3.109,3.109,0,0,1,16.39,6.018c.481,1.213.37,4.09.37,5.43S16.871,15.669,16.39,16.878Z" transform="translate(0.005 -2.238)"/></svg>