<svg xmlns="http://www.w3.org/2000/svg" width="238.031" height="52.914" viewBox="0 0 238.031 52.914"><defs><style>.a{fill:#fff;}</style></defs><path class="a" d="M287.9,8513.487a5.552,5.552,0,1,1,11.1,0v12.205a5.552,5.552,0,1,1-11.1,0Zm3.309,12.205a2.243,2.243,0,1,0,4.482,0v-12.205a2.243,2.243,0,1,0-4.482,0Z" transform="translate(-255.232 -8497.24)"/><path class="a" d="M310.174,8508.152h3.181l5,13.925h.065v-13.925h3.311v23.111h-3.116l-5.063-13.895h-.066v13.895h-3.311Z" transform="translate(-263.605 -8497.359)"/><path class="a" d="M334.66,8511.27h-3.832v-3.117H341.8v3.117h-3.83v19.994H334.66Z" transform="translate(-271.371 -8497.359)"/><path class="a" d="M350.753,8508.152h9.871v3.117h-6.555v6.785h5.709v3.113h-5.709v6.784h6.555v3.312h-9.871Z" transform="translate(-278.863 -8497.359)"/><path class="a" d="M370.01,8508.152h3.179l4.253,12.236h.066l4.22-12.236h3.215v23.111h-3.311v-14.055h-.066l-3.28,9.934h-1.656l-3.244-9.934h-.065v14.055H370.01Z" transform="translate(-286.103 -8497.359)"/><path class="a" d="M409.645,8526.07a5.356,5.356,0,1,1-10.712,0v-17.918h3.316v17.593c0,1.622.875,2.4,2.041,2.4s2.047-.781,2.047-2.4v-17.593h3.308Z" transform="translate(-296.978 -8497.359)"/><path class="a" d="M421.1,8508.152h5.324c3.928,0,5.844,2.306,5.844,6.785,0,2.661-.749,4.611-2.858,5.775l3.571,10.551h-3.506l-3.083-9.869h-1.981v9.869H421.1Zm3.312,10.321h1.88c2.306,0,2.666-1.3,2.666-3.6,0-2.336-.39-3.6-2.827-3.6h-1.719Z" transform="translate(-305.313 -8497.359)"/><path class="a" d="M443.263,8508.152h5.325c3.928,0,5.845,2.306,5.845,6.785,0,2.661-.748,4.611-2.859,5.775l3.571,10.551H451.64l-3.083-9.869h-1.981v9.869h-3.313Zm3.313,10.321h1.885c2.3,0,2.658-1.3,2.658-3.6,0-2.336-.388-3.6-2.825-3.6h-1.719Z" transform="translate(-313.646 -8497.359)"/><path class="a" d="M465.117,8513.487a5.553,5.553,0,1,1,11.1,0v12.205a5.553,5.553,0,1,1-11.1,0Zm3.309,12.205a2.244,2.244,0,1,0,4.483,0v-12.205a2.244,2.244,0,1,0-4.483,0Z" transform="translate(-321.862 -8497.24)"/><path class="a" d="M498.228,8518.815l2.273,10.259h.065l2.241-10.259h3.405l-4.738,19.315c-.713,2.953-2.6,3.8-4.576,3.8h-.909v-3.116h.744c1.333,0,1.755-.456,2.5-4.287l-4.514-15.711Z" transform="translate(-332.993 -8501.368)"/><path class="a" d="M528.033,8508.152h2.762l5.159,23.111h-3.308l-.977-4.964h-4.512l-.977,4.964h-3.308Zm1.4,6.653h-.065l-1.625,8.376h3.309Z" transform="translate(-343.578 -8497.359)"/><path class="a" d="M556.767,8514.689h-3.317v-.745c0-1.526-.646-2.793-2.337-2.793-1.815,0-2.237,1.461-2.237,2.987,0,1.784.162,2.4,1.88,3.083l2.533,1c2.923,1.1,3.478,2.954,3.478,6.33,0,3.9-1.432,6.784-5.717,6.784a5.455,5.455,0,0,1-5.649-5.486v-1.232h3.311v1.039a2.182,2.182,0,0,0,2.338,2.369c2.239,0,2.4-1.328,2.4-3.441,0-2.469-.291-2.856-1.913-3.5l-2.369-.977c-2.859-1.167-3.606-3.049-3.606-5.935,0-3.51,1.885-6.335,5.68-6.335a5.42,5.42,0,0,1,5.525,5.226Z" transform="translate(-352.048 -8497.24)"/><path class="a" d="M567.252,8513.487a5.551,5.551,0,1,1,11.1,0v12.205a5.551,5.551,0,1,1-11.1,0Zm3.309,12.205a2.243,2.243,0,1,0,4.482,0v-12.205a2.243,2.243,0,1,0-4.482,0Z" transform="translate(-360.264 -8497.24)"/><path class="a" d="M600.131,8525.984a5.342,5.342,0,0,1-5.259,5.356c-2.528,0-5.451-1.231-5.451-5.452v-12.726a5.166,5.166,0,0,1,5.388-5.324,5.256,5.256,0,0,1,5.322,5.52v1.3h-3.309v-1.105a2.173,2.173,0,0,0-2.046-2.4c-1.655,0-2.044,1.137-2.044,2.694v11.815c0,1.331.518,2.369,2.012,2.369a2.045,2.045,0,0,0,2.077-2.338v-1.136h3.309Z" transform="translate(-368.6 -8497.24)"/><path class="a" d="M610.6,8539.883h3.31v3.312H610.6Z" transform="translate(-376.561 -8509.29)"/><g transform="translate(16.561 43.121)"><path class="a" d="M264.38,8563.01h.87l2.294,7.759H266.8l-.629-2.262h-2.716l-.634,2.262h-.738Zm1.641,4.911-1.2-4.369H264.8l-1.2,4.369Z" transform="translate(-262.086 -8561.105)"/><path class="a" d="M276.673,8563.01h1.87c2.261,0,2.813,1.347,2.813,3.877s-.552,3.882-2.813,3.882h-1.87Zm.7,7.169h1.13c1.523,0,2.162-.758,2.162-3.28,0-2.542-.638-3.3-2.162-3.3h-1.13Z" transform="translate(-267.571 -8561.105)"/><path class="a" d="M291.025,8563.01h1.2l1.87,6.888h.019l1.868-6.888h1.143v7.759h-.7v-7.107h-.019l-2.012,7.107h-.651l-2.01-7.107h-.024v7.107h-.691Z" transform="translate(-272.967 -8561.105)"/><path class="a" d="M307.821,8563.01h.7v7.759h-.7Z" transform="translate(-279.282 -8561.105)"/><path class="a" d="M315.839,8563.01h.935l2.967,6.758h.019v-6.758h.7v7.759h-.932l-2.965-6.761h-.024v6.761h-.7Z" transform="translate(-282.297 -8561.105)"/><path class="a" d="M330.152,8563.01h.7v7.759h-.7Z" transform="translate(-287.678 -8561.105)"/><path class="a" d="M341.386,8564.918c0-.954-.446-1.532-1.392-1.532a1.35,1.35,0,0,0-1.466,1.39c0,2.316,3.76,1.043,3.76,3.77a2.113,2.113,0,0,1-2.348,2.272,2.043,2.043,0,0,1-2.261-2.3v-.231h.7v.295a1.462,1.462,0,0,0,1.543,1.65,1.477,1.477,0,0,0,1.675-1.574c0-2.3-3.762-.987-3.762-3.8a1.959,1.959,0,0,1,2.14-2.056,1.868,1.868,0,0,1,2.111,2.121Z" transform="translate(-290.508 -8561.025)"/><path class="a" d="M352.542,8563.6h-2v-.586h4.7v.586h-2v7.173h-.7Z" transform="translate(-295.345 -8561.105)"/><path class="a" d="M364.035,8563.01h2.316a1.808,1.808,0,0,1,2.012,1.944,1.77,1.77,0,0,1-1.405,1.965v.021c.967.089,1.294.643,1.326,1.838l.024.847a1.73,1.73,0,0,0,.323,1.144h-.815a2.359,2.359,0,0,1-.2-1.087l-.024-.652c-.044-1.371-.294-1.8-1.54-1.8h-1.316v3.542h-.7Zm.7,3.629h1.2c1.1,0,1.74-.5,1.74-1.522,0-.942-.4-1.521-1.663-1.521h-1.272Z" transform="translate(-300.418 -8561.105)"/><path class="a" d="M378.933,8563.01h.87l2.292,7.759h-.738l-.633-2.262h-2.716l-.629,2.262h-.738Zm1.641,4.911-1.2-4.369h-.022l-1.2,4.369Z" transform="translate(-305.157 -8561.105)"/><path class="a" d="M395.9,8568.056c-.1,1.774-.914,2.762-2.3,2.762-1.586,0-2.478-1.229-2.478-4.01s.892-4.011,2.478-4.011a2.141,2.141,0,0,1,2.227,2.391h-.7c0-1.051-.533-1.8-1.53-1.8-1.108,0-1.781.912-1.781,3.422s.673,3.422,1.781,3.422c.978,0,1.53-.836,1.607-2.174Z" transform="translate(-310.603 -8561.025)"/><path class="a" d="M405.224,8563.01h.694v7.759h-.694Z" transform="translate(-315.905 -8561.105)"/><path class="a" d="M415.615,8561.729c1.586,0,2.478,1.229,2.478,4.009s-.892,4.012-2.478,4.012-2.477-1.229-2.477-4.012S414.03,8561.729,415.615,8561.729Zm0,7.433c1.108,0,1.783-.912,1.783-3.424s-.675-3.421-1.783-3.421-1.781.913-1.781,3.421S414.507,8569.162,415.615,8569.162Zm1.118-9.205-1.065,1.536h-.521l.815-1.536Z" transform="translate(-318.88 -8559.957)"/><path class="a" d="M427.814,8563.01h.935l2.964,6.758h.024v-6.758h.694v7.759H431.5l-2.967-6.761h-.022v6.761h-.694Z" transform="translate(-324.398 -8561.105)"/><path class="a" d="M451.118,8563.01h1.868c2.259,0,2.815,1.347,2.815,3.877s-.556,3.882-2.815,3.882h-1.868Zm.694,7.169h1.129c1.521,0,2.162-.758,2.162-3.28,0-2.542-.641-3.3-2.162-3.3h-1.129Z" transform="translate(-333.16 -8561.105)"/><path class="a" d="M465.357,8563.01H469.2v.586h-3.149v2.824H469v.587h-2.947v3.172H469.3v.59h-3.943Z" transform="translate(-338.514 -8561.105)"/><path class="a" d="M491.714,8568.056c-.1,1.774-.911,2.762-2.3,2.762-1.589,0-2.477-1.229-2.477-4.01s.889-4.011,2.477-4.011a2.139,2.139,0,0,1,2.224,2.391h-.7c0-1.051-.53-1.8-1.527-1.8-1.109,0-1.784.912-1.784,3.422s.675,3.422,1.784,3.422c.978,0,1.527-.836,1.607-2.174Z" transform="translate(-346.628 -8561.025)"/><path class="a" d="M503.338,8562.8c1.583,0,2.477,1.229,2.477,4.011s-.894,4.01-2.477,4.01-2.48-1.229-2.48-4.01S501.753,8562.8,503.338,8562.8Zm0,7.433c1.106,0,1.778-.91,1.778-3.422s-.672-3.422-1.778-3.422-1.783.912-1.783,3.422S502.23,8570.229,503.338,8570.229Z" transform="translate(-351.862 -8561.025)"/><path class="a" d="M515.538,8563.01h.933l2.966,6.758h.022v-6.758h.694v7.759h-.93l-2.969-6.761h-.023v6.761h-.694Z" transform="translate(-357.382 -8561.105)"/><path class="a" d="M533,8564.918c0-.954-.443-1.532-1.391-1.532a1.351,1.351,0,0,0-1.468,1.39c0,2.316,3.76,1.043,3.76,3.77a2.111,2.111,0,0,1-2.345,2.272,2.043,2.043,0,0,1-2.26-2.3v-.231h.695v.295a1.463,1.463,0,0,0,1.543,1.65,1.478,1.478,0,0,0,1.675-1.574c0-2.3-3.76-.987-3.76-3.8a1.958,1.958,0,0,1,2.14-2.056,1.865,1.865,0,0,1,2.107,2.121Z" transform="translate(-362.553 -8561.025)"/><path class="a" d="M545.4,8562.8c1.588,0,2.48,1.229,2.48,4.011s-.892,4.01-2.48,4.01-2.475-1.229-2.475-4.01S543.812,8562.8,545.4,8562.8Zm0,7.433c1.111,0,1.783-.91,1.783-3.422s-.672-3.422-1.783-3.422-1.778.912-1.778,3.422S544.289,8570.229,545.4,8570.229Z" transform="translate(-367.677 -8561.025)"/><path class="a" d="M557.6,8563.01h2.317a1.805,1.805,0,0,1,2.007,1.944,1.767,1.767,0,0,1-1.4,1.965v.021c.966.089,1.291.643,1.325,1.838l.019.847a1.713,1.713,0,0,0,.33,1.144h-.819a2.381,2.381,0,0,1-.2-1.087l-.023-.652c-.041-1.371-.294-1.8-1.545-1.8h-1.31v3.542h-.7Zm.7,3.629h1.2c1.1,0,1.737-.5,1.737-1.522,0-.942-.405-1.521-1.665-1.521h-1.268Z" transform="translate(-373.195 -8561.105)"/><path class="a" d="M575.864,8568.056c-.1,1.774-.908,2.762-2.3,2.762-1.587,0-2.48-1.229-2.48-4.01s.894-4.011,2.48-4.011a2.142,2.142,0,0,1,2.229,2.391h-.7c0-1.051-.532-1.8-1.532-1.8-1.106,0-1.784.912-1.784,3.422s.678,3.422,1.784,3.422c.976,0,1.532-.836,1.607-2.174Z" transform="translate(-378.266 -8561.025)"/><path class="a" d="M585.187,8563.01h.7v7.759h-.7Z" transform="translate(-383.569 -8561.105)"/><path class="a" d="M595.579,8562.8c1.588,0,2.477,1.229,2.477,4.011s-.889,4.01-2.477,4.01-2.479-1.229-2.479-4.01S593.992,8562.8,595.579,8562.8Zm0,7.433c1.106,0,1.78-.91,1.78-3.422s-.674-3.422-1.78-3.422-1.784.912-1.784,3.422S594.472,8570.229,595.579,8570.229Z" transform="translate(-386.544 -8561.025)"/><path class="a" d="M610.993,8564.918c0-.954-.446-1.532-1.392-1.532a1.347,1.347,0,0,0-1.463,1.39c0,2.316,3.757,1.043,3.757,3.77a2.112,2.112,0,0,1-2.348,2.272,2.043,2.043,0,0,1-2.261-2.3v-.231h.7v.295a1.609,1.609,0,1,0,3.217.076c0-2.3-3.759-.987-3.759-3.8a1.958,1.958,0,0,1,2.14-2.056,1.866,1.866,0,0,1,2.108,2.121Z" transform="translate(-391.878 -8561.025)"/></g><line class="a" x2="138.816" transform="translate(16.311 39.383)"/><line class="a" x2="60.171" transform="translate(177.86 39.383)"/><path class="a" d="M235.546,8543.512H247.6V8501.47l-8.841-10.615h-3.217Z" transform="translate(-235.546 -8490.854)"/><path class="a" d="M261.684,8501.47v23.383h12.055v-34h-3.216Z" transform="translate(-245.374 -8490.854)"/></svg>